<?xml version="1.0" encoding="UTF-8" standalone="no"?>
<!-- Created with Inkscape (http://www.inkscape.org/) -->

<svg
   xmlns:dc="http://purl.org/dc/elements/1.1/"
   xmlns:cc="http://creativecommons.org/ns#"
   xmlns:rdf="http://www.w3.org/1999/02/22-rdf-syntax-ns#"
   xmlns:svg="http://www.w3.org/2000/svg"
   xmlns="http://www.w3.org/2000/svg"
   xmlns:sodipodi="http://sodipodi.sourceforge.net/DTD/sodipodi-0.dtd"
   xmlns:inkscape="http://www.inkscape.org/namespaces/inkscape"
   width="508"
   height="97"
   viewBox="0 0 476.25 90.937497"
   id="svg2"
   version="1.1"
   inkscape:version="0.92.3 (2405546, 2018-03-11)"
   sodipodi:docname="chronos_inverse.svg"
   inkscape:export-filename="/home/doug/ownCloud/FLY/brand/chronos/chronos_logo.svg.png"
   inkscape:export-xdpi="300"
   inkscape:export-ydpi="300">
  <defs
     id="defs4">
    <inkscape:path-effect
       effect="bspline"
       id="path-effect824"
       is_visible="true"
       weight="33.333333"
       steps="2"
       helper_size="0"
       apply_no_weight="true"
       apply_with_weight="true"
       only_selected="false" />
  </defs>
  <sodipodi:namedview
     id="base"
     pagecolor="#ffffff"
     bordercolor="#666666"
     borderopacity="1.0"
     inkscape:pageopacity="0.0"
     inkscape:pageshadow="2"
     inkscape:zoom="1.203125"
     inkscape:cx="222.66599"
     inkscape:cy="-90.52621"
     inkscape:document-units="px"
     inkscape:current-layer="layer1"
     showgrid="false"
     inkscape:window-width="1920"
     inkscape:window-height="1025"
     inkscape:window-x="0"
     inkscape:window-y="27"
     inkscape:window-maximized="1"
     fit-margin-top="0"
     fit-margin-left="0"
     fit-margin-right="0"
     fit-margin-bottom="0"
     units="px" />
  <metadata
     id="metadata7">
    <rdf:RDF>
      <cc:Work
         rdf:about="">
        <dc:format>image/svg+xml</dc:format>
        <dc:type
           rdf:resource="http://purl.org/dc/dcmitype/StillImage" />
        <dc:title />
      </cc:Work>
    </rdf:RDF>
  </metadata>
  <g
     inkscape:label="Layer 1"
     inkscape:groupmode="layer"
     id="layer1"
     transform="translate(966.39984,-1441.4568)">
    <text
       xml:space="preserve"
       style="font-style:normal;font-weight:normal;font-size:11.07740498px;line-height:125%;font-family:sans-serif;text-align:start;letter-spacing:-1.31944203px;word-spacing:0px;text-anchor:start;fill:#000000;fill-opacity:1;stroke:none;stroke-width:0.98465818px;stroke-linecap:butt;stroke-linejoin:miter;stroke-opacity:1"
       x="-528.68048"
       y="841.63"
       id="text4295"><tspan
         sodipodi:role="line"
         id="tspan4297"
         x="-528.68048"
         y="851.43091"
         style="stroke-width:0.98465818px" /></text>
    <g
       aria-label="HRONOS"
       style="font-style:normal;font-weight:normal;font-size:19.13609123px;line-height:0%;font-family:sans-serif;text-align:start;letter-spacing:5.16355848px;word-spacing:0px;text-anchor:start;fill:#ececec;fill-opacity:1;stroke:none;stroke-width:1.59467435px;stroke-linecap:butt;stroke-linejoin:miter;stroke-opacity:1"
       id="text2531"
       inkscape:export-filename="/home/doug/Desktop/chronosidea.png"
       inkscape:export-xdpi="300"
       inkscape:export-ydpi="300">
      <path
         d="m -848.18021,1522.0988 v -55.6328 h 6.90613 v 23.289 h 30.31027 v -23.289 h 6.90614 v 55.6328 h -6.90614 v -25.8213 h -30.31027 v 25.8213 z"
         style="font-style:normal;font-variant:normal;font-weight:normal;font-stretch:normal;font-size:78.57649994px;line-height:1.25;font-family:Loma;-inkscape-font-specification:Loma;stroke-width:1.59467435px;fill:#ececec"
         id="path857" />
      <path
         d="m -765.74465,1499.8456 h -13.81227 v 22.2532 h -6.90614 v -55.6328 h 21.21719 q 5.1796,0 9.05471,0.8441 3.91348,0.844 6.29226,2.2636 2.37878,1.4196 3.83674,3.5682 1.45797,2.1486 1.99511,4.4506 0.53714,2.2637 0.53714,5.1413 0,6.6375 -3.56817,11.0882 -3.5298,4.4506 -9.97553,5.4098 l 17.76412,22.867 h -10.74288 z m 1.26613,-6.5224 q 14.04248,0 14.04248,-10.3592 0,-1.6882 -0.34531,-3.0311 -0.30694,-1.3812 -1.26613,-2.6857 -0.92081,-1.3428 -2.49388,-2.2253 -1.5347,-0.9208 -4.10531,-1.4579 -2.57062,-0.5756 -5.98532,-0.5756 h -14.92493 v 20.3348 z"
         style="font-style:normal;font-variant:normal;font-weight:normal;font-stretch:normal;font-size:78.57649994px;line-height:1.25;font-family:Loma;-inkscape-font-specification:Loma;stroke-width:1.59467435px;fill:#ececec"
         id="path859" />
      <path
         d="m -689.0642,1519.0677 q -6.02369,3.4531 -13.88901,3.4531 -7.86532,0 -13.92738,-3.4531 -6.02368,-3.4914 -9.40002,-9.9371 -3.37633,-6.4458 -3.37633,-14.925 0,-8.4024 3.22286,-14.8482 3.22287,-6.4457 9.28492,-10.0522 6.10042,-3.6066 14.19595,-3.6066 8.09553,0 14.15758,3.6066 6.10042,3.6065 9.32329,10.0522 3.22286,6.4458 3.22286,14.8482 0,8.4792 -3.37633,14.925 -3.37634,6.4457 -9.43839,9.9371 z m 0.57551,-40.7462 q -5.2947,-6.1004 -14.46452,-6.1004 -9.16982,0 -14.50289,6.1004 -5.29471,6.1004 -5.29471,15.8841 0,9.9372 5.29471,15.8841 5.29471,5.9086 14.50289,5.9086 9.20818,0 14.50289,-5.9086 5.2947,-5.9469 5.2947,-15.8841 0,-9.7837 -5.33307,-15.8841 z"
         style="font-style:normal;font-variant:normal;font-weight:normal;font-stretch:normal;font-size:78.57649994px;line-height:1.25;font-family:Loma;-inkscape-font-specification:Loma;stroke-width:1.59467435px;fill:#ececec"
         id="path861" />
      <path
         d="m -661.41733,1522.0988 v -55.6328 h 6.90614 l 30.50211,43.547 v -43.547 h 6.90613 v 55.6328 h -6.90613 l -30.50211,-43.5854 v 43.5854 z"
         style="font-style:normal;font-variant:normal;font-weight:normal;font-stretch:normal;font-size:78.57649994px;line-height:1.25;font-family:Loma;-inkscape-font-specification:Loma;stroke-width:1.59467435px;fill:#ececec"
         id="path863" />
      <path
         d="m -560.87234,1519.0677 q -6.02368,3.4531 -13.88901,3.4531 -7.86532,0 -13.92737,-3.4531 -6.02369,-3.4914 -9.40002,-9.9371 -3.37634,-6.4458 -3.37634,-14.925 0,-8.4024 3.22287,-14.8482 3.22286,-6.4457 9.28491,-10.0522 6.10043,-3.6066 14.19595,-3.6066 8.09553,0 14.15759,3.6066 6.10042,3.6065 9.32328,10.0522 3.22287,6.4458 3.22287,14.8482 0,8.4792 -3.37634,14.925 -3.37633,6.4457 -9.43839,9.9371 z m 0.57552,-40.7462 q -5.29471,-6.1004 -14.46453,-6.1004 -9.16981,0 -14.50289,6.1004 -5.2947,6.1004 -5.2947,15.8841 0,9.9372 5.2947,15.8841 5.29471,5.9086 14.50289,5.9086 9.20819,0 14.50289,-5.9086 5.29471,-5.9469 5.29471,-15.8841 0,-9.7837 -5.33307,-15.8841 z"
         style="font-style:normal;font-variant:normal;font-weight:normal;font-stretch:normal;font-size:78.57649994px;line-height:1.25;font-family:Loma;-inkscape-font-specification:Loma;stroke-width:1.59467435px;fill:#ececec"
         id="path865" />
      <path
         d="m -490.90619,1505.7542 q 0,5.0262 -2.83919,8.9013 -2.83919,3.8367 -7.55838,5.8702 -4.68083,1.9951 -10.39758,1.9951 -4.75756,0 -8.5943,-0.8825 -3.83674,-0.8824 -6.36899,-2.4171 -2.53226,-1.5731 -4.33552,-3.4531 -1.80327,-1.9183 -2.80083,-4.2204 -0.95918,-2.302 -1.41959,-4.3355 -0.42204,-2.0718 -0.46041,-4.2588 h 7.02124 q 0.80571,6.4457 5.14123,9.7453 4.37389,3.2996 11.47187,3.2996 3.76,0 6.90613,-0.9975 3.14613,-0.9976 5.21798,-3.2229 2.1102,-2.2637 2.1102,-5.4098 0,-1.8416 -0.84408,-3.2612 -0.80572,-1.458 -1.99511,-2.2637 -1.15102,-0.8441 -3.10776,-1.5347 -1.95674,-0.6906 -3.49143,-0.9976 -1.5347,-0.3453 -3.91348,-0.7673 -2.34042,-0.4604 -3.52981,-0.7673 -2.41714,-0.5756 -4.14368,-1.0743 -1.72653,-0.4988 -3.83674,-1.2662 -2.11021,-0.7673 -3.56817,-1.573 -1.45797,-0.8057 -2.9543,-1.9568 -1.45796,-1.151 -2.34041,-2.4939 -0.88245,-1.3812 -1.45796,-3.1844 -0.53715,-1.8033 -0.53715,-3.9135 0,-4.7576 2.60899,-8.3258 2.64735,-3.5681 7.09798,-5.4098 4.48898,-1.88 10.09063,-1.88 8.90124,0 14.69473,4.5658 5.79348,4.5657 6.44572,12.8914 h -7.13634 q -0.57551,-4.9494 -4.22042,-7.942 -3.60653,-2.9927 -9.47675,-2.9927 -5.90859,0 -9.55349,2.2637 -3.64491,2.2637 -3.64491,6.3306 0,0.9592 0.26857,1.8416 0.26858,0.8441 0.69062,1.5347 0.42204,0.6523 1.11265,1.2662 0.72899,0.6138 1.38123,1.0742 0.65225,0.4221 1.6498,0.8441 0.99755,0.4221 1.72654,0.6906 0.76734,0.2686 1.88,0.5756 1.15102,0.3069 1.84164,0.4604 0.69061,0.1534 1.80327,0.422 1.11265,0.2302 1.61143,0.3453 0.92082,0.2302 2.99266,0.6523 2.11021,0.3836 3.5298,0.6906 1.45796,0.2685 3.56817,0.9208 2.11021,0.6139 3.56817,1.3045 1.49633,0.6906 3.10777,1.88 1.64979,1.151 2.64735,2.5706 0.99755,1.3812 1.6498,3.4147 0.69061,2.0335 0.69061,4.4506 z"
         style="font-style:normal;font-variant:normal;font-weight:normal;font-stretch:normal;font-size:78.57649994px;line-height:1.25;font-family:Loma;-inkscape-font-specification:Loma;stroke-width:1.59467435px;fill:#ececec"
         id="path867" />
    </g>
    <path
       inkscape:export-ydpi="300"
       inkscape:export-xdpi="300"
       inkscape:export-filename="/home/doug/Desktop/chronosidea.png"
       sodipodi:nodetypes="ccccccc"
       inkscape:connector-curvature="0"
       id="path2556"
       d="m -910.55773,1485.7275 23.4694,8.7134 57.05299,-46.0891 -9.39114,3.7708 -46.69389,29.4634 -17.40775,-1.7163 z"
       style="fill:#b3b3b3;fill-opacity:0.96078431;fill-rule:evenodd;stroke:none;stroke-width:0.51140189px;stroke-linecap:butt;stroke-linejoin:miter;stroke-opacity:1" />
    <path
       inkscape:export-ydpi="300"
       inkscape:export-xdpi="300"
       inkscape:export-filename="/home/doug/Desktop/chronosidea.png"
       id="path2558"
       style="color:#000000;clip-rule:nonzero;display:inline;overflow:visible;visibility:visible;opacity:1;isolation:auto;mix-blend-mode:normal;color-interpolation:sRGB;color-interpolation-filters:linearRGB;solid-color:#000000;solid-opacity:1;fill:none;fill-opacity:1;fill-rule:nonzero;stroke:#e6e6e6;stroke-width:13.777174;stroke-linecap:square;stroke-linejoin:bevel;stroke-miterlimit:4;stroke-dasharray:none;stroke-dashoffset:0;stroke-opacity:1;color-rendering:auto;image-rendering:auto;shape-rendering:auto;text-rendering:auto;enable-background:accumulate"
       sodipodi:type="arc"
       sodipodi:cx="-893.43903"
       sodipodi:cy="1487.0282"
       sodipodi:rx="38.508583"
       sodipodi:ry="38.508583"
       sodipodi:start="0.92624377"
       sodipodi:end="5.3314939"
       d="m -870.3015,1517.8108 a 38.508583,38.508583 0 0 1 -51.39422,-4.6202 38.508583,38.508583 0 0 1 -0.65655,-51.5973 38.508583,38.508583 0 0 1 51.26002,-5.9264"
       sodipodi:open="true" />
    <path
       style="color:#000000;font-style:normal;font-variant:normal;font-weight:normal;font-stretch:normal;font-size:medium;line-height:normal;font-family:sans-serif;font-variant-ligatures:normal;font-variant-position:normal;font-variant-caps:normal;font-variant-numeric:normal;font-variant-alternates:normal;font-feature-settings:normal;text-indent:0;text-align:start;text-decoration:none;text-decoration-line:none;text-decoration-style:solid;text-decoration-color:#000000;letter-spacing:normal;word-spacing:normal;text-transform:none;writing-mode:lr-tb;direction:ltr;text-orientation:mixed;dominant-baseline:auto;baseline-shift:baseline;text-anchor:start;white-space:normal;shape-padding:0;clip-rule:nonzero;display:inline;overflow:visible;visibility:visible;opacity:1;isolation:auto;mix-blend-mode:normal;color-interpolation:sRGB;color-interpolation-filters:linearRGB;solid-color:#000000;solid-opacity:1;vector-effect:none;fill:#b3b3b3;fill-opacity:0.96078431;fill-rule:evenodd;stroke:none;stroke-width:3.1875;stroke-linecap:butt;stroke-linejoin:miter;stroke-miterlimit:4;stroke-dasharray:none;stroke-dashoffset:0;stroke-opacity:1;color-rendering:auto;image-rendering:auto;shape-rendering:auto;text-rendering:auto;enable-background:accumulate"
       d="m -896.28593,1498.436 c -9.66013,6.7476 -21.9742,12.3657 -31.73344,16.2496 -5.60777,2.2317 -47.54763,11.7234 -11.57567,-24.2034 -35.87757,20.3716 -26.98215,47.7732 20.18485,26.7836 10.35179,-4.6066 18.36588,-9.2828 27.68834,-17.3162 z"
       id="path822"
       inkscape:connector-curvature="0"
       sodipodi:nodetypes="cscscc"
       inkscape:export-filename="/home/doug/Desktop/chronosidea.png"
       inkscape:export-xdpi="300"
       inkscape:export-ydpi="300" />
  </g>
</svg>
