<?xml version="1.0" encoding="UTF-8" standalone="no"?>
<!-- Created with Inkscape (http://www.inkscape.org/) -->

<svg
   xmlns:dc="http://purl.org/dc/elements/1.1/"
   xmlns:cc="http://creativecommons.org/ns#"
   xmlns:rdf="http://www.w3.org/1999/02/22-rdf-syntax-ns#"
   xmlns:svg="http://www.w3.org/2000/svg"
   xmlns="http://www.w3.org/2000/svg"
   xmlns:sodipodi="http://sodipodi.sourceforge.net/DTD/sodipodi-0.dtd"
   xmlns:inkscape="http://www.inkscape.org/namespaces/inkscape"
   width="1.2500004in"
   height="0.5306828in"
   viewBox="0 0 31.750009 13.479345"
   version="1.1"
   id="svg8"
   inkscape:version="0.92.5 (2060ec1f9f, 2020-04-08)"
   sodipodi:docname="airbly.svg">
  <defs
     id="defs2" />
  <sodipodi:namedview
     id="base"
     pagecolor="#ffffff"
     bordercolor="#666666"
     borderopacity="1.0"
     inkscape:pageopacity="0.0"
     inkscape:pageshadow="2"
     inkscape:zoom="0.35"
     inkscape:cx="453.41207"
     inkscape:cy="231.78242"
     inkscape:document-units="mm"
     inkscape:current-layer="layer1"
     showgrid="false"
     inkscape:window-width="630"
     inkscape:window-height="1044"
     inkscape:window-x="1282"
     inkscape:window-y="4"
     inkscape:window-maximized="0"
     fit-margin-top="0"
     fit-margin-left="0"
     fit-margin-right="0"
     fit-margin-bottom="0"
     units="in"
     height="7.5in" />
  <metadata
     id="metadata5">
    <rdf:RDF>
      <cc:Work
         rdf:about="">
        <dc:format>image/svg+xml</dc:format>
        <dc:type
           rdf:resource="http://purl.org/dc/dcmitype/StillImage" />
        <dc:title></dc:title>
      </cc:Work>
    </rdf:RDF>
  </metadata>
  <g
     inkscape:label="Layer 1"
     inkscape:groupmode="layer"
     id="layer1"
     transform="translate(51.666377,-215.84917)">
    <path
       style="fill:#3a799c;fill-opacity:1;stroke-width:0.01929009"
       d="m -37.118429,229.31077 c -3.103262,-0.14312 -6.076223,-0.61309 -9.144734,-1.4456 -1.583697,-0.42967 -2.58971,-0.78952 -3.470986,-1.24156 -0.610345,-0.31307 -1.025067,-0.59804 -1.350306,-0.92782 -0.270148,-0.27392 -0.432291,-0.52653 -0.533786,-0.83162 -0.0638,-0.19178 -0.06425,-0.58629 -9.26e-4,-0.80544 0.207673,-0.71861 0.978619,-1.47925 2.241882,-2.21191 0.275827,-0.15997 1.045851,-0.55549 1.298837,-0.66714 l 0.170367,-0.0752 0.06837,-0.13503 c 0.0376,-0.0743 0.124783,-0.23919 0.193732,-0.36651 0.129062,-0.23831 0.198498,-0.36813 0.366289,-0.68479 0.120533,-0.22749 0.625966,-1.17422 0.854764,-1.60108 0.09383,-0.17506 0.220973,-0.41435 0.282537,-0.53175 0.06156,-0.1174 0.242143,-0.45791 0.401286,-0.75669 l 0.289351,-0.54323 1.014218,-5.2e-4 1.014218,-5.3e-4 0.02159,0.12056 c 0.01187,0.0663 0.08755,0.49817 0.168169,0.95968 0.337792,1.93371 0.311889,1.80063 0.347791,1.78685 0.04546,-0.0174 0.968939,-0.26298 0.986504,-0.2623 0.0089,2.7e-4 -0.196492,0.0773 -0.456426,0.17089 -2.319385,0.83554 -4.349063,1.74615 -5.777378,2.59203 -1.197936,0.70945 -1.982281,1.39072 -2.27366,1.97488 -0.324464,0.65048 -0.144443,1.09319 0.659343,1.62146 0.238889,0.15701 0.831683,0.45127 1.228514,0.60983 1.866121,0.74564 4.847398,1.36955 8.169354,1.70965 2.630337,0.2693 5.328237,0.33318 7.764262,0.18385 0.489398,-0.03 0.666075,-0.0445 1.302081,-0.10711 3.445132,-0.33899 5.990555,-1.15709 7.600229,-2.44273 0.448166,-0.35794 0.903669,-0.86769 1.099506,-1.23044 0.06024,-0.11158 0.06056,-0.11331 0.0089,-0.0482 -0.380156,0.4786 -1.092876,0.76005 -1.841318,0.72713 -0.517088,-0.0227 -0.945965,-0.17875 -1.259025,-0.45798 -0.386634,-0.34486 -0.595804,-0.98071 -0.516875,-1.57123 0.02005,-0.14997 0.698335,-4.03392 0.725136,-4.15219 l 0.0098,-0.0434 h 0.809817 c 0.729813,0 0.809815,0.003 0.809815,0.0309 0,0.017 -0.147268,0.86586 -0.327262,1.88637 -0.179995,1.02051 -0.335939,1.93182 -0.34654,2.02513 -0.03274,0.2881 0.01809,0.53439 0.144482,0.7001 0.07036,0.0922 0.193236,0.16981 0.346399,0.21867 0.182687,0.0583 0.546231,0.0593 0.765543,0.002 0.377344,-0.0983 0.70358,-0.3426 0.89593,-0.67083 0.11687,-0.19942 0.101882,-0.12487 0.625722,-3.11221 0.08465,-0.48273 0.162924,-0.92327 0.173944,-0.97897 l 0.02004,-0.10127 h 0.8056 c 0.443083,0 0.809876,0.004 0.815101,0.01 0.021,0.021 -0.140391,1.27519 -0.245765,1.90986 -0.335376,2.01997 -0.712588,3.29941 -1.230438,4.17342 -0.423165,0.71421 -1.21078,1.46105 -2.124468,2.01449 -0.32303,0.19566 -1.07864,0.56854 -1.529824,0.75493 -2.546658,1.05207 -5.684046,1.67652 -9.166532,1.82445 -0.518475,0.022 -2.413592,0.021 -2.903159,-0.002 z m -8.025204,-9.26997 c 0.307967,-0.1023 0.563194,-0.18874 0.567173,-0.1921 0.0089,-0.008 -0.187908,-1.38977 -0.20624,-1.44844 -0.01033,-0.0331 -0.113391,0.15711 -0.475684,0.8777 -0.536267,1.06662 -0.47913,0.94883 -0.460267,0.94883 0.0083,0 0.267052,-0.0837 0.575018,-0.18599 z m 12.686853,4.88204 c -0.482885,-0.0882 -0.847765,-0.33877 -1.065249,-0.73164 l -0.07187,-0.12983 -0.01987,0.0937 c -0.01092,0.0515 -0.04319,0.2174 -0.07169,0.36858 l -0.05183,0.27489 h -0.779117 -0.779115 v -0.0436 c 0,-0.024 0.03413,-0.23447 0.07584,-0.46779 0.04171,-0.23331 0.367309,-2.0822 0.723545,-4.10862 0.356238,-2.02642 0.654465,-3.71045 0.662728,-3.74228 l 0.01502,-0.0579 h 0.799816 c 0.699929,0 0.7993,0.004 0.795677,0.0289 -0.0023,0.0159 -0.05258,0.30237 -0.11178,0.63657 -0.0592,0.3342 -0.164131,0.92882 -0.233176,1.32137 -0.06905,0.39256 -0.137944,0.78318 -0.153104,0.86806 -0.01516,0.0849 -0.02779,0.15866 -0.02805,0.16396 -2.48e-4,0.005 0.07733,-0.0654 0.172436,-0.15724 0.383785,-0.37038 0.776236,-0.59195 1.26355,-0.71337 0.22923,-0.0571 0.712227,-0.071 0.96617,-0.0278 0.866812,0.14755 1.406337,0.71325 1.583516,1.66034 0.0506,0.27045 0.05119,1.00189 0.0011,1.32137 -0.137259,0.87495 -0.424014,1.6012 -0.872361,2.20937 -0.154835,0.21003 -0.464468,0.52494 -0.663507,0.67481 -0.389868,0.29358 -0.848563,0.48729 -1.32334,0.55884 -0.232117,0.035 -0.641388,0.0346 -0.835315,-7.9e-4 z m 0.562158,-1.33167 c 0.54443,-0.12028 1.064209,-0.65104 1.292332,-1.31963 0.254334,-0.74539 0.260657,-1.58251 0.01485,-1.96557 -0.229634,-0.35786 -0.703216,-0.51658 -1.238548,-0.41512 -0.378499,0.0717 -0.704134,0.2919 -0.944636,0.63866 -0.21426,0.30893 -0.414371,0.89954 -0.491817,1.45156 -0.06476,0.46159 0.01112,0.90571 0.202807,1.18699 0.137567,0.20187 0.409806,0.39217 0.619054,0.43274 0.142457,0.0276 0.39779,0.0231 0.545959,-0.01 z m -17.984202,1.19194 c 0,-0.008 0.0076,-0.0237 0.01694,-0.0337 0.01498,-0.0162 0.449431,-0.82595 0.771248,-1.43747 0.06383,-0.12128 0.175182,-0.32819 0.247457,-0.45979 l 0.131408,-0.23927 0.250771,-0.1617 c 0.371789,-0.23972 1.02293,-0.62569 1.514273,-0.8976 0.677232,-0.37478 0.733023,-0.40443 0.733023,-0.38956 0,0.008 -0.410156,0.8286 -0.911456,1.82425 l -0.911458,1.81029 -0.921101,2e-5 c -0.506607,1e-5 -0.921102,-0.007 -0.921102,-0.0154 z m 6.018508,5.3e-4 c 0,-0.008 -0.113159,-0.80036 -0.251464,-1.76022 -0.138306,-0.95991 -0.284105,-1.97253 -0.323999,-2.25031 l -0.07253,-0.50506 0.801429,-0.39513 c 0.440785,-0.21732 0.803931,-0.39263 0.806991,-0.38958 0.0031,0.003 0.06118,0.32133 0.129163,0.70729 0.06798,0.38595 0.206968,1.17483 0.308861,1.75305 0.391657,2.22255 0.491982,2.79892 0.491982,2.82645 0,0.0247 -0.124563,0.0285 -0.945214,0.0285 -0.519868,0 -0.945215,-0.007 -0.945215,-0.015 z m 2.295521,0.005 c 0,-0.005 0.02983,-0.18115 0.06629,-0.39063 0.08494,-0.48797 0.268711,-1.54992 0.317944,-1.83727 0.0209,-0.12201 0.120954,-0.7006 0.222332,-1.28576 0.101377,-0.58515 0.184323,-1.06909 0.184323,-1.07542 0,-0.006 0.369507,-0.0115 0.821129,-0.0115 0.773038,0 0.820533,0.002 0.810965,0.0338 -0.0056,0.0186 -0.02355,0.11622 -0.0399,0.21701 -0.01636,0.10079 -0.06287,0.37423 -0.103362,0.60764 -0.04049,0.23341 -0.203092,1.17308 -0.361334,2.08815 l -0.287715,1.66377 h -0.815337 c -0.448435,0 -0.815337,-0.004 -0.815337,-0.01 z m 2.314811,0.002 c 0,-0.008 0.161415,-0.92553 0.299044,-1.69973 0.245997,-1.38379 0.781201,-4.43024 0.781201,-4.4467 0,-0.0121 0.279182,-0.019 0.771971,-0.019 h 0.771971 l -0.01048,0.0434 c -0.0058,0.0239 -0.0348,0.18267 -0.06452,0.35288 l -0.05403,0.30948 0.214835,-0.21303 c 0.402399,-0.39902 0.82567,-0.599 1.369865,-0.64722 0.208597,-0.0185 0.607637,-0.0262 0.607637,-0.0117 0,0.0184 -0.292723,1.66139 -0.296714,1.66538 -0.0025,0.002 -0.107426,-0.004 -0.233219,-0.0154 -0.262887,-0.0228 -0.546511,-0.001 -0.789797,0.0599 -0.496447,0.12499 -0.868686,0.47094 -1.051078,0.97685 -0.08786,0.24371 -0.07139,0.15996 -0.405242,2.06083 -0.08385,0.47743 -0.180894,1.03082 -0.215652,1.22974 l -0.0632,0.36169 h -0.816297 c -0.448964,0 -0.816297,-0.003 -0.816297,-0.007 z m 10.442382,-0.036 c 0.0058,-0.0239 0.137489,-0.76389 0.292545,-1.64448 0.155057,-0.88059 0.485418,-2.75463 0.734136,-4.16453 0.248717,-1.4099 0.452213,-2.56658 0.452213,-2.57041 0,-0.0105 1.612546,-0.008 1.623061,0.002 0.005,0.005 -0.222575,1.32229 -0.505761,2.92727 -0.283187,1.60498 -0.603636,3.42162 -0.712107,4.03697 -0.108474,0.61536 -0.208993,1.18393 -0.223376,1.2635 -0.01438,0.0796 -0.02645,0.15553 -0.02682,0.16879 -5.03e-4,0.0189 -0.178278,0.0241 -0.822593,0.0241 h -0.821921 z m -10.384512,-4.85967 c -0.03713,-0.0104 -0.07788,-0.0291 -0.09054,-0.0416 -0.01266,-0.0125 -0.158447,-0.31784 -0.323961,-0.67856 -0.165513,-0.36073 -0.328762,-0.71356 -0.362775,-0.78408 l -0.06184,-0.12822 -0.591622,0.16479 c -0.565683,0.15756 -0.590926,0.16657 -0.575729,0.20537 0.0087,0.0223 0.05222,0.11802 0.09663,0.21267 0.10833,0.23088 0.118771,0.26098 0.105283,0.30348 -0.01352,0.0426 -0.179874,0.13208 -0.245508,0.13208 -0.06926,0 -0.09703,-0.0338 -0.182172,-0.22184 -0.04324,-0.0955 -0.15329,-0.33642 -0.24456,-0.53541 -0.09127,-0.19899 -0.165812,-0.38129 -0.165649,-0.40509 4.23e-4,-0.0657 0.02016,-0.0853 0.140886,-0.14062 0.101314,-0.0464 0.114866,-0.0483 0.154784,-0.0222 0.02616,0.0171 0.08503,0.1206 0.146423,0.25734 0.05647,0.12577 0.108415,0.23509 0.115432,0.24293 0.01126,0.0126 0.934685,-0.58742 1.002193,-0.65119 0.02222,-0.021 0.0026,-0.077 -0.122961,-0.34989 -0.542494,-1.17968 -0.571879,-1.24871 -0.559538,-1.3145 0.01653,-0.0881 0.137912,-0.20425 0.253457,-0.24248 0.124109,-0.0411 0.259222,-0.0584 0.338435,-0.0435 0.05944,0.0112 0.0704,0.0259 0.149035,0.20014 0.502728,1.11373 0.477022,1.06406 0.628087,1.21348 l 0.139621,0.1381 0.239214,-0.0731 c 0.344042,-0.1052 0.354761,-0.10679 0.401925,-0.0596 0.02273,0.0227 0.06494,0.0398 0.09831,0.0398 0.07485,0 0.0939,0.0464 0.04196,0.10226 -0.02716,0.0292 -0.03634,0.0585 -0.02943,0.0939 0.0086,0.0442 -0.0032,0.0611 -0.08353,0.11948 -0.05147,0.0374 -0.170077,0.11409 -0.263584,0.17038 l -0.170011,0.10237 0.01042,0.19336 0.01042,0.19337 0.291616,0.63606 0.291616,0.63606 -0.03494,0.0649 c -0.06292,0.11684 -0.26904,0.25581 -0.41236,0.27803 -0.03713,0.006 -0.0979,0.002 -0.13503,-0.008 z"
       id="path828"
       inkscape:connector-curvature="0" />
  </g>
</svg>
