<?xml version="1.0" encoding="utf-8"?>
<!-- Generator: Adobe Illustrator 24.1.1, SVG Export Plug-In . SVG Version: 6.00 Build 0)  -->
<svg version="1.1" id="Layer_1" xmlns="http://www.w3.org/2000/svg" xmlns:xlink="http://www.w3.org/1999/xlink" x="0px" y="0px"
	 viewBox="0 0 576 90" style="enable-background:new 0 0 576 90;" xml:space="preserve">
<style type="text/css">
	.st0{fill:#FFFFFF;}
</style>
<g>
	<g>
		<g>
			<path class="st0" d="M103.6,80.3c-9.3,0-21.3-10-21.3-20.8c0-10.8,8.7-22.1,21.3-22.1c6.2,0,11.4,2.3,15,5.8l1.2-2.6
				c-4.1-3.6-9.6-6-16.2-6V4.8h-0.1c-1.1,0-2.1,0.9-2.2,2l-0.5,7.1l-41-0.8c0.7,1.7,3,2,3,2l37.7,2.6l-1.3,17.3
				c-7.3,1.3-13.1,5.8-16.7,11.6c-0.9-4-4.2-7.7-9.3-7.7c-5.6,0-9.5,5.1-9.5,9.9c0,4.8,4.5,9.3,9.5,9.3c2,0,4-0.8,5.6-2
				c-0.3,1.4-0.4,2.9-0.4,4.3c0,1.5,0.2,3,0.5,4.5l-66.8-0.2c-1.4,0-2.7-0.9-3.3-2.2l-2.6-6.7c-0.3-0.7-1.1-1.1-1.8-0.8
				c-0.7,0.3-1,1-0.8,1.7l3,9.7C8,70,11.8,70,11.8,70l71.7,4.3c5.1,6.5,13,10.9,20.1,10.8c0,0,0,0,0,0L103.6,80.3z M71.2,48.9
				c-1.1,1-1.7,2.6-1.9,4c-1-0.8-1.8-1.9-2.2-3.2c0.8,0.4,1.8,0.3,2.5-0.2c0.7-0.4,1.4-0.8,2-1C71.6,48.6,71.4,48.7,71.2,48.9z
				 M71.2,47.2c-1.5-0.1-3.1,0.6-4.2,1.5c0-0.2-0.1-0.4-0.1-0.6c0-1.1,0.3-2.2,0.8-3.1c0.3,0.8,1,1.4,1.9,1.6
				c0.8,0.2,1.5,0.4,2.2,0.7C71.6,47.2,71.4,47.2,71.2,47.2z M72.3,45.9c-1-1.1-2.6-1.7-4-1.9c0.8-1,1.8-1.8,3.1-2.2
				c-0.4,0.8-0.3,1.8,0.2,2.6c0.4,0.7,0.8,1.4,1,2C72.6,46.2,72.4,46.1,72.3,45.9z M74.6,44.3c-0.2,0.8-0.4,1.5-0.7,2.2
				c0-0.2,0.1-0.4,0.1-0.6c0.1-1.5-0.6-3.1-1.5-4.3c0.3,0,0.5-0.1,0.8-0.1c1.2,0,2.2,0.3,3.1,0.8C75.5,42.6,74.8,43.3,74.6,44.3z
				 M77.1,42.9C77.1,42.9,77.1,42.9,77.1,42.9C77.1,42.9,77.2,42.9,77.1,42.9L77.1,42.9z M17.6,66.8v-0.4l61.7,0
				c0.3,0.9,0.6,1.8,1,2.6L17.6,66.8z"/>
			<path class="st0" d="M103.5,77.3C103.5,77.3,103.6,77.3,103.5,77.3l0-1.5c0,0,0-1.5,0-1.5c-5.8,0-12.6-2.9-17.5-7.1
				C90.4,73.1,97.5,77.3,103.5,77.3z"/>
			<path class="st0" d="M144.4,15.2c0,0,2.3-0.3,3-2l-41,0.8l0.3,3.9L144.4,15.2z"/>
		</g>
		<path class="st0" d="M92,44.9c7.7-0.8,15.2-0.8,22.9,0c1,0.1,1.9,0.7,2.5,1.5c1.8,2.9,2.8,5.2,3.5,8.4c-11.3-1.8-23.5-1.8-34.8,0
			c0.8-3.3,1.6-5.7,3.5-8.5C90.2,45.6,91.1,45,92,44.9z"/>
	</g>
	<g>
		<g>
			<rect x="171.7" y="43.6" class="st0" width="6.6" height="33.7"/>
			<path class="st0" d="M222.7,54.1c0-2.6-1-5-2.7-6.9c-2.3-2.4-5.5-3.6-9.8-3.6h-14c-2.5,0-4.5,2-4.5,4.5v29.2h6.6V64.7h10.8
				l7,12.6h7.7l-8-13.6C220.2,61.9,222.7,58.3,222.7,54.1z M211.2,58.7h-12.9v-9.1h11.9c1.7,0,3.3,0.1,4.7,1.6
				c0.8,0.8,1.2,1.8,1.2,2.9C216.1,56.6,213.8,58.7,211.2,58.7z"/>
			<path class="st0" d="M261.2,66.9c-3.2,3.4-7.5,5.3-11.9,5.3c-6.7,0-11.5-5-11.5-11.8c0-6.9,4.7-11.8,11.3-11.8
				c3.9,0,8.3,1.7,11,4.4l0.4,0.3l4.5-4.5l-0.4-0.4c-4-3.7-9.8-5.9-15.7-5.9c-10.3,0-18.1,7.7-18.1,17.8c0,10.4,7.7,17.9,18.4,17.9
				c8.3,0,13.9-4.4,16.5-7l0.4-0.4l-4.5-4.4L261.2,66.9z"/>
			<path class="st0" d="M306.5,54.1c0-2.6-1-5-2.7-6.9c-2.3-2.4-5.5-3.6-9.8-3.6h-14c-2.5,0-4.5,2-4.5,4.5v29.2h6.6V64.7h10.8
				l7,12.6h7.7l-8-13.6C303.9,61.9,306.5,58.3,306.5,54.1z M294.9,58.7H282v-9.1h11.9c1.7,0,3.3,0.1,4.7,1.6
				c0.8,0.8,1.2,1.8,1.2,2.9C299.8,56.6,297.6,58.7,294.9,58.7z"/>
			<path class="st0" d="M331.3,43.6c-1.8,0-3.4,1-4.1,2.6l-14.4,31.1h7l3.9-8.8h14.9l4,8.8h7.3l-14.4-31.1
				C334.7,44.6,333,43.6,331.3,43.6z M326.1,62.9l5-11.2l5,11.2H326.1z"/>
			<path class="st0" d="M358.3,48.1v29.2h6.6V62.7h12.6v-6H365v-7.1h20.7v-6h-22.8C360.4,43.6,358.3,45.6,358.3,48.1z"/>
			<polygon class="st0" points="390.2,49.6 403.1,49.6 403.1,77.3 409.7,77.3 409.7,49.6 422.5,49.6 422.5,43.6 390.2,43.6 			"/>
			<path class="st0" d="M427.7,69.7c-2.5,0-4.5,1.8-4.5,4.2c0,2.3,2,4.1,4.5,4.1c2.5,0,4.5-1.8,4.5-4.1
				C432.2,71.6,430.2,69.7,427.7,69.7z"/>
			<path class="st0" d="M469.3,66.9c-3.2,3.4-7.5,5.3-11.9,5.3c-6.7,0-11.5-5-11.5-11.8c0-6.9,4.7-11.8,11.3-11.8
				c3.9,0,8.3,1.7,11,4.4l0.4,0.3l4.5-4.5l-0.4-0.4c-4-3.7-9.8-5.9-15.7-5.9c-10.3,0-18.1,7.7-18.1,17.8c0,10.4,7.7,17.9,18.4,17.9
				c8.3,0,13.9-4.4,16.5-7l0.4-0.4l-4.5-4.4L469.3,66.9z"/>
			<path class="st0" d="M499,42.6c-10.6,0-18.9,7.8-18.9,17.8c0,10.1,8.3,17.9,18.9,17.9c10.7,0,19-7.9,19-17.9
				C518.1,50.5,509.5,42.6,499,42.6z M499,72.2c-6.6,0-11.9-5.3-11.9-11.9c0-6.6,5.2-11.7,11.9-11.7c6.7,0,12.1,5.3,12.1,11.7
				C511.1,66.9,505.7,72.2,499,72.2z"/>
			<path class="st0" d="M557.1,43.6c-1.4,0-2.7,0.8-3.5,2l-9.9,16.9l-9.9-16.8c-0.7-1.3-2.1-2.1-3.6-2.1c-2.3,0-4.2,1.9-4.2,4.2
				v29.5h6.4V56l10.3,17.3h1.5L554.4,56v21.2h6.6V47.6C561.1,45.4,559.3,43.6,557.1,43.6z"/>
		</g>
		<path class="st0" d="M146.7,42.3c-0.8-1.7-2.5-2.8-4.4-2.8c-1.9,0-3.6,1.1-4.4,2.8l-16.3,35h7.4l4.4-10h17.3l4.5,10h7.7
			L146.7,42.3z M148.1,61.5H136l6.1-13.7L148.1,61.5z"/>
	</g>
	<g>
		<path class="st0" d="M572.4,47.1c0,2-1.6,3.5-3.6,3.5s-3.6-1.6-3.6-3.5c0-2,1.6-3.5,3.6-3.5C570.8,43.6,572.4,45.1,572.4,47.1z
			 M566.1,47.1c0,1.6,1.2,2.8,2.7,2.8c1.5,0,2.7-1.2,2.7-2.8c0-1.6-1.2-2.8-2.7-2.8C567.3,44.3,566.1,45.5,566.1,47.1z M568.2,48.9
			h-0.8v-3.5c0.3,0,0.8-0.1,1.3-0.1c0.7,0,1,0.1,1.2,0.3c0.2,0.2,0.4,0.4,0.4,0.8c0,0.4-0.3,0.7-0.7,0.8v0c0.3,0.1,0.5,0.4,0.6,0.9
			c0.1,0.5,0.2,0.7,0.3,0.9h-0.9c-0.1-0.1-0.2-0.4-0.3-0.9c-0.1-0.4-0.3-0.5-0.7-0.5h-0.4V48.9z M568.3,46.9h0.4
			c0.4,0,0.8-0.2,0.8-0.5c0-0.3-0.2-0.5-0.7-0.5c-0.2,0-0.4,0-0.5,0V46.9z"/>
	</g>
</g>
</svg>
